<?xml version="1.0" encoding="UTF-8"?> <svg xmlns="http://www.w3.org/2000/svg" viewBox="0 0 1000 426.72"> <defs> <style>.cls-1{fill:#d4a066;}</style> </defs> <title>1Ресурс 1</title> <g id="Слой_2" data-name="Слой 2"> <g id="Layer_1" data-name="Layer 1"> <path class="cls-1" d="M338.78,289.63h-3.63a2,2,0,0,0-1.44.62l-26.5,27.86-26.49-27.86a2,2,0,0,0-1.44-.62h-3.64a1.19,1.19,0,0,0-1.19,1.19V345.1a1.19,1.19,0,0,0,1.19,1.19h5.57a1.19,1.19,0,0,0,1.19-1.19V303.56l24,24.91a1.19,1.19,0,0,0,1.72,0L332,303.56V345.1a1.19,1.19,0,0,0,1.2,1.19h5.56a1.19,1.19,0,0,0,1.2-1.19V290.82A1.19,1.19,0,0,0,338.78,289.63Z"></path> <path class="cls-1" d="M797.35,289.63H743.08a1.2,1.2,0,0,0-1.2,1.19v5.57a1.19,1.19,0,0,0,1.2,1.19h23.16V345.1a1.19,1.19,0,0,0,1.19,1.19H773a1.19,1.19,0,0,0,1.19-1.19V297.58h23.16a1.19,1.19,0,0,0,1.19-1.19v-5.57A1.19,1.19,0,0,0,797.35,289.63Z"></path> <path class="cls-1" d="M855.09,290a1.23,1.23,0,0,0-.85-.35H815.41a1.23,1.23,0,0,0-.85.35l-7.72,7.72a1.21,1.21,0,0,0-.35.84v38.84a1.21,1.21,0,0,0,.35.84l7.72,7.72a1.23,1.23,0,0,0,.85.35h38.83a1.23,1.23,0,0,0,.85-.35l7.71-7.72a1.16,1.16,0,0,0,.35-.84V298.54a1.16,1.16,0,0,0-.35-.84Zm.11,44.6-3.76,3.76H818.21l-3.76-3.76V301.34l3.76-3.76h33.23l3.76,3.76Z"></path> <path class="cls-1" d="M688.68,297.58h33.23l6.89,6.9a1.21,1.21,0,0,0,1.69,0l3.94-3.94a1.21,1.21,0,0,0,0-1.69l-8.64-8.64a2,2,0,0,0-1.41-.58H686.21a2,2,0,0,0-1.41.58l-7.25,7.26a2,2,0,0,0-.58,1.4v38.18a2,2,0,0,0,.58,1.4l7.25,7.26a2,2,0,0,0,1.41.58h38.17a2,2,0,0,0,1.41-.58l8.64-8.64a1.21,1.21,0,0,0,0-1.69l-3.94-3.93a1.19,1.19,0,0,0-1.69,0l-6.89,6.89H688.68l-3.76-3.76V301.34Z"></path> <path class="cls-1" d="M47.52,338.34H8v-47a1.19,1.19,0,0,0-1.19-1.19H1.19A1.19,1.19,0,0,0,0,291.33V345.1a1.19,1.19,0,0,0,1.19,1.19H47.52a1.19,1.19,0,0,0,1.19-1.19v-5.57A1.19,1.19,0,0,0,47.52,338.34Z"></path> <path class="cls-1" d="M112.12,289.63h-5.56a1.19,1.19,0,0,0-1.19,1.19v43.76l-3.76,3.76H68.37l-3.76-3.76V290.82a1.19,1.19,0,0,0-1.19-1.19H57.85a1.19,1.19,0,0,0-1.19,1.19v46.56a1.16,1.16,0,0,0,.35.84l7.72,7.72a1.19,1.19,0,0,0,.84.35h38.84a1.21,1.21,0,0,0,.84-.35l7.72-7.72a1.21,1.21,0,0,0,.35-.84V290.82A1.2,1.2,0,0,0,112.12,289.63Z"></path> <path class="cls-1" d="M536.82,289.63h-5.57a1.19,1.19,0,0,0-1.19,1.19v43.76l-3.76,3.76H493.06l-3.76-3.76V290.82a1.19,1.19,0,0,0-1.19-1.19h-5.56a1.2,1.2,0,0,0-1.2,1.19v46.56a1.21,1.21,0,0,0,.35.84l7.72,7.72a1.21,1.21,0,0,0,.84.35H529.1a1.19,1.19,0,0,0,.84-.35l7.72-7.72a1.16,1.16,0,0,0,.35-.84V290.82A1.19,1.19,0,0,0,536.82,289.63Z"></path> <path class="cls-1" d="M397.92,290a1.21,1.21,0,0,0-.84-.35H358.24a1.19,1.19,0,0,0-.84.35l-7.72,7.72a1.21,1.21,0,0,0-.35.84V345.1a1.19,1.19,0,0,0,1.19,1.19h5.57a1.19,1.19,0,0,0,1.19-1.19V327.86H398V345.1a1.19,1.19,0,0,0,1.19,1.19h5.57A1.19,1.19,0,0,0,406,345.1V298.54a1.21,1.21,0,0,0-.35-.84ZM398,319.9H357.28V301.34l3.76-3.76h33.24l3.76,3.76Z"></path> <path class="cls-1" d="M659.55,290a1.21,1.21,0,0,0-.84-.35H619.87a1.21,1.21,0,0,0-.84.35l-7.72,7.72a1.21,1.21,0,0,0-.35.84V345.1a1.19,1.19,0,0,0,1.19,1.19h5.57a1.19,1.19,0,0,0,1.19-1.19V327.86h40.76V345.1a1.19,1.19,0,0,0,1.19,1.19h5.57a1.19,1.19,0,0,0,1.19-1.19V298.54a1.21,1.21,0,0,0-.35-.84Zm.12,29.92H618.91V301.34l3.76-3.76h33.24l3.76,3.76Z"></path> <path class="cls-1" d="M243.66,289.63H198.12a1.21,1.21,0,0,0-.84.35l-7.72,7.72a1.21,1.21,0,0,0-.35.84v38.84a1.21,1.21,0,0,0,.35.84l7.72,7.72a1.21,1.21,0,0,0,.84.35h45.54a1.19,1.19,0,0,0,1.2-1.19v-5.57a1.19,1.19,0,0,0-1.2-1.19H200.92l-3.76-3.76V322.11h35.36a1.19,1.19,0,0,0,1.19-1.2v-5.56a1.19,1.19,0,0,0-1.19-1.2H197.16V301.34l3.76-3.76h42.74a1.19,1.19,0,0,0,1.2-1.19v-5.57A1.2,1.2,0,0,0,243.66,289.63Z"></path> <path class="cls-1" d="M601.82,289.63H556.28a1.23,1.23,0,0,0-.85.35l-7.72,7.72a1.21,1.21,0,0,0-.35.84V345.1a1.19,1.19,0,0,0,1.2,1.19h5.56a1.19,1.19,0,0,0,1.2-1.19V321.94h35.35a1.19,1.19,0,0,0,1.19-1.2v-5.56a1.19,1.19,0,0,0-1.19-1.2H555.32V301.34l3.75-3.76h42.75a1.19,1.19,0,0,0,1.19-1.19v-5.57A1.2,1.2,0,0,0,601.82,289.63Z"></path> <path class="cls-1" d="M470.81,289.63h-5.57a1.19,1.19,0,0,0-1.19,1.19v41.9L421.31,290a1.21,1.21,0,0,0-.84-.35h-3.94a1.2,1.2,0,0,0-1.19,1.19V345.1a1.19,1.19,0,0,0,1.19,1.19h5.57a1.19,1.19,0,0,0,1.19-1.19V303.21L466,345.94a1.19,1.19,0,0,0,.84.35h3.94A1.19,1.19,0,0,0,472,345.1V290.82A1.19,1.19,0,0,0,470.81,289.63Z"></path> <path class="cls-1" d="M185.41,289.63h-9.79a1.21,1.21,0,0,0-.84.35l-22.36,22.36L130.07,290a1.23,1.23,0,0,0-.85-.35h-9.79a.4.4,0,0,0-.28.68L146.8,318l-27.65,27.65a.4.4,0,0,0,.28.68h9.79a1.23,1.23,0,0,0,.85-.35l22.35-22.36,22.36,22.36a1.21,1.21,0,0,0,.84.35h9.79a.4.4,0,0,0,.29-.68L158.05,318l27.65-27.65A.4.4,0,0,0,185.41,289.63Z"></path> <path class="cls-1" d="M999.6,289.63h-9.79a1.19,1.19,0,0,0-.84.35l-22.7,22.7L943.58,290a1.23,1.23,0,0,0-.85-.35h-9.79a.4.4,0,0,0-.28.68L962.3,320V345.1a1.19,1.19,0,0,0,1.19,1.19h5.57a1.19,1.19,0,0,0,1.19-1.19V320l29.63-29.64A.4.4,0,0,0,999.6,289.63Z"></path> <path class="cls-1" d="M921.1,290a1.21,1.21,0,0,0-.84-.35H873.7a1.19,1.19,0,0,0-1.19,1.19V345.1a1.19,1.19,0,0,0,1.19,1.19h5.57a1.19,1.19,0,0,0,1.19-1.19V324.89h37l3.76,3.76V345.1a1.19,1.19,0,0,0,1.19,1.19H928a1.19,1.19,0,0,0,1.19-1.19V325.85a1.19,1.19,0,0,0-.35-.84l-4.09-4.1,4.09-4.09a1.21,1.21,0,0,0,.35-.84V298.54a1.21,1.21,0,0,0-.35-.84Zm.12,23.2-2.12,2.11-1.64,1.65h-37V297.58h37l3.76,3.76Z"></path> <path class="cls-1" d="M174.59,426.38h-4.67V403h4.67v9.67h12.34V403h4.67v23.35h-4.67v-9.67H174.59Z"></path> <path class="cls-1" d="M213.28,420.21h-11l-2.67,6.17h-5.17L204.77,403h6l10.34,23.35H216Zm-9.18-4h7.34l-3.67-8.51Z"></path> <path class="cls-1" d="M241.29,403H246v23.35h-4.5l-12.84-16v16h-4.68V403h4.51l12.84,16Z"></path> <path class="cls-1" d="M251.62,403H269l4.67,4.34v14.68L269,426.38H251.62Zm15.18,19.35,2.17-2V409l-2.17-2H256.3v15.35Z"></path> <path class="cls-1" d="M298.66,426.38H283l-4.67-4.33V407.37L283,403h15.69v4H285.14L283,409v11.35l2.17,2h13.52Z"></path> <path class="cls-1" d="M307.65,418.71v7.67H303V403h16.85l4.34,4v7.68l-4,3.83,5.68,7.84h-5.51l-5.5-7.67Zm10-11.68h-10v7.68h10L319.5,413V408.7Z"></path> <path class="cls-1" d="M345.51,420.21h-11l-2.67,6.17h-5.17L337,403h6l10.34,23.35h-5.17Zm-9.17-4h7.34L340,407.7Z"></path> <path class="cls-1" d="M376.19,403v4H360.85v6.34h11.67v4H360.85v9h-4.67V403Z"></path> <path class="cls-1" d="M386.36,426.38V407h-8.67v-4h22v4H391v19.35Z"></path> <path class="cls-1" d="M423.22,403v4H407.87v5.67h11.68v4H407.87v5.67h15.68v4H403.2V403Z"></path> <path class="cls-1" d="M427.54,403h17.35l4.67,4.34v14.68l-4.67,4.33H427.54Zm15.18,19.35,2.17-2V409l-2.17-2H432.21v15.35Z"></path> <path class="cls-1" d="M470.07,403v19.35h14.34v4h-19V403Z"></path> <path class="cls-1" d="M504.92,403h4.67v19.35l-4.67,4.34H492.24l-4.67-4.34V403h4.67v17.68l2.17,2h8.34l2.17-2Z"></path> <path class="cls-1" d="M531.27,426.38l-6.84-8.67-6.84,8.67h-5.51l9.35-12L512.75,403h5.51l6.17,8.17L530.6,403h5.51l-8.68,11.34,9.34,12Z"></path> <path class="cls-1" d="M556.61,403h4.67v19.35l-4.67,4.34H543.94l-4.68-4.34V403h4.68v17.68l2.16,2h8.34l2.17-2Z"></path> <path class="cls-1" d="M571.62,418.71v7.67h-4.68V403h16.85l4.34,4v7.68l-4,3.83,5.67,7.84h-5.51l-5.5-7.67Zm10-11.68h-10v7.68h10l1.84-1.67V408.7Z"></path> <path class="cls-1" d="M600.46,418.71,590.29,403h5.34l7.17,11L610,403h5.34l-10.18,15.68v7.67h-4.67Z"></path> <path class="cls-1" d="M632.14,419.38v7h-4.67V403h17.19l4.33,4v8.34l-4.33,4ZM642.49,407H632.14v8.34h10.35l1.83-1.67v-5Z"></path> <path class="cls-1" d="M658,418.71v7.67h-4.67V403h16.85l4.34,4v7.68l-4,3.83,5.67,7.84h-5.5l-5.51-7.67ZM668,407H658v7.68h10l1.83-1.67V408.7Z"></path> <path class="cls-1" d="M697.52,402.69l4.67,4.34v15.35l-4.67,4.34H684l-4.67-4.34V407l4.67-4.34Zm-13.52,6v12l2.17,2h9.18l2.17-2v-12l-2.17-2h-9.18Z"></path> <path class="cls-1" d="M707.35,403H724.7l4.67,4.34v14.68l-4.67,4.33H707.35Zm15.18,19.35,2.17-2V409l-2.17-2H712v15.35Z"></path> <path class="cls-1" d="M751.88,403h4.67v19.35l-4.67,4.34H739.2l-4.67-4.34V403h4.67v17.68l2.17,2h8.34l2.17-2Z"></path> <path class="cls-1" d="M782.06,426.38H766.38l-4.67-4.33V407.37l4.67-4.34h15.68v4H768.55l-2.17,2v11.35l2.17,2h13.51Z"></path> <path class="cls-1" d="M792.89,426.38V407h-8.67v-4h22v4h-8.68v19.35Z"></path> <path class="cls-1" d="M808.56,412.54V407l4.34-4h15.85v4H815.07l-1.84,1.67v2.17l1.84,1.67h10.67l4.34,4v5.84l-4.34,4H808.9v-4h14.68l1.83-1.67v-2.5l-1.83-1.67H812.9Z"></path> <path class="cls-1" d="M462,213.78V166.65a5.51,5.51,0,0,1-2.19-4.4,6.3,6.3,0,0,1,0-.75L446.6,148.25H396.45A107.13,107.13,0,0,0,401,158.91h38.29l.33,0,.15,0,.17,0,.17.05.15,0,.16.06.15,0,.15.07.14.07.14.09.14.08.15.11.12.09.24.22,8.67,8.67s0,0,0,0,.13.13.18.2l.1.13a1.47,1.47,0,0,0,.1.13l.09.16.08.13.07.15c0,.05.05.09.07.14s0,.11.05.16l.06.15a.94.94,0,0,0,0,.16s0,.1,0,.16a1.1,1.1,0,0,1,0,.18.68.68,0,0,1,0,.14,1.83,1.83,0,0,1,0,.33v38.29A108.14,108.14,0,0,0,462,213.78Z"></path> <path class="cls-1" d="M468.66,166.65V216q5.23,1.55,10.66,2.58V175.32a5.52,5.52,0,0,1,0-8.8V155l-7.69-7.69h0L463,138.6a.08.08,0,0,1,0,0,1.71,1.71,0,0,1-.18-.2,1.13,1.13,0,0,1-.1-.13l-.1-.13-.09-.16-.08-.12-.07-.16s-.05-.09-.07-.14a.88.88,0,0,1-.05-.15l-.06-.16c0-.05,0-.1,0-.16s0-.1,0-.15l0-.19a.68.68,0,0,0,0-.14c0-.11,0-.22,0-.33V132a5.32,5.32,0,0,1-1.06-1.06H391.65q1,5.43,2.58,10.66H448l.31,0,.15,0,.17,0,.17.05.15,0,.16.06.15,0,.15.07.14.07.14.09.14.08.15.11.12.09.23.2v0l14.23,14.23a4.74,4.74,0,0,1,.75-.06,5.53,5.53,0,0,1,3.34,9.93Z"></path> <path class="cls-1" d="M444.64,80a5.32,5.32,0,0,1-1.06-1.06H394.23q-1.55,5.24-2.58,10.66h34.59a5.53,5.53,0,1,1,0,6.68H390.6c-.45,3.51-.72,7.06-.83,10.66h67.48L445.62,95.25h0a2.2,2.2,0,0,1-.2-.23l-.1-.12-.1-.14v0l-.08-.13-.08-.13-.07-.16-.07-.14s0-.1-.05-.15l-.06-.16a.83.83,0,0,0,0-.15c0-.06,0-.11,0-.17a1.1,1.1,0,0,1,0-.18l0-.14c0-.11,0-.22,0-.33h0Z"></path> <path class="cls-1" d="M572.38,113.57h-38l-.15,0-.17,0-.17,0-.15,0-.16-.06-.15-.05-.15-.07-.14-.07-.14-.08-.14-.09a.83.83,0,0,1-.15-.11l-.12-.08-.24-.23h0l-.22-.24a.94.94,0,0,1-.09-.12,1.34,1.34,0,0,1-.11-.14l-.09-.15a.57.57,0,0,0-.08-.13l-.07-.16c0-.05,0-.09-.07-.14l-.05-.15-.06-.16a.83.83,0,0,0,0-.15c0-.06,0-.11,0-.17a1.1,1.1,0,0,1,0-.18.68.68,0,0,1,0-.14,2.43,2.43,0,0,1,0-.66.68.68,0,0,1,0-.14,1.1,1.1,0,0,1,0-.18c0-.06,0-.11,0-.16a.94.94,0,0,0,0-.16l.06-.15c0-.06,0-.11.05-.16l.07-.14s.05-.1.07-.16l.08-.12.09-.16a1.47,1.47,0,0,0,.1-.13,1.13,1.13,0,0,1,.1-.13c0-.07.12-.13.18-.2s0,0,0,0l16.36-16.36V80a5.53,5.53,0,1,1,7.74-7.74h47.13A108.14,108.14,0,0,0,599,61.55H552a3.33,3.33,0,0,1-3.34-3.34V53.94a5.32,5.32,0,0,1-1.06-1.06H534.34a3.35,3.35,0,0,1-3-3.33V4.47a104.81,104.81,0,0,0-10.66-2.58V45.14a5.53,5.53,0,0,1-3.34,9.93,6.3,6.3,0,0,1-.75,0L502.36,69.24a3.31,3.31,0,0,1-2,1H500a3.28,3.28,0,0,1-2.36-1h0L483.41,55a6.3,6.3,0,0,1-.75,0,5.53,5.53,0,0,1-3.34-9.93V1.89a105.46,105.46,0,0,0-10.66,2.58V49.54a3.35,3.35,0,0,1-3,3.33H452.38a5.32,5.32,0,0,1-1.06,1.06v4.27A3.33,3.33,0,0,1,448,61.55H401a108.14,108.14,0,0,0-4.57,10.66h47.13A5.53,5.53,0,1,1,451.32,80V91.51L459,99.2h0l8.67,8.67.22.24a.94.94,0,0,1,.09.12l.11.15.09.14a1,1,0,0,0,.08.14l.07.15.07.14s0,.1,0,.15l.06.16a.83.83,0,0,0,0,.15c0,.06,0,.11,0,.17a1.1,1.1,0,0,1,0,.18.59.59,0,0,1,0,.14,2.43,2.43,0,0,1,0,.66.59.59,0,0,1,0,.14,1.1,1.1,0,0,1,0,.18c0,.06,0,.11,0,.17a.83.83,0,0,0,0,.15l-.06.16s0,.1,0,.15l-.07.14-.07.16a.57.57,0,0,0-.08.13l-.09.15a1.34,1.34,0,0,1-.11.14.94.94,0,0,1-.09.12,2.4,2.4,0,0,1-.22.24h0a2.61,2.61,0,0,1-.24.23l-.12.08-.14.11-.15.09-.14.08-.14.07-.15.07-.15.05-.16.06-.15,0-.17,0-.17,0-.15,0H389.77c.11,3.6.38,7.16.83,10.66h70.32a5.53,5.53,0,1,1,7.74,7.74v2.89l14,14,6.31-6.31,0-.05.19-.17.13-.1.13-.1.16-.09.12-.08.16-.07.14-.07.15,0,.16-.06.15,0,.17-.05.16,0,.16,0,.29,0h5.37v-3.94L480.3,121.26h0a2.4,2.4,0,0,1-.22-.24.94.94,0,0,1-.09-.12,1.34,1.34,0,0,1-.11-.14l-.09-.15a.57.57,0,0,0-.08-.13l-.07-.16s-.05-.09-.07-.14,0-.1-.05-.15l-.06-.16a.83.83,0,0,0,0-.15c0-.06,0-.11,0-.17a1.1,1.1,0,0,1,0-.18l0-.14c0-.11,0-.22,0-.33V87.56h-14a4.38,4.38,0,0,1-.52,0,.8.8,0,0,1-.15,0,3.18,3.18,0,0,1-1.31-.58,2.43,2.43,0,0,1-.38-.33,2.24,2.24,0,0,1-.32-.37,3.16,3.16,0,0,1-.59-1.32l0-.15a4.38,4.38,0,0,1,0-.52V66.88c0-.11,0-.22,0-.33a.68.68,0,0,0,0-.14l0-.18c0-.06,0-.11,0-.16s0-.11,0-.16l.06-.15a1,1,0,0,1,.05-.16.91.91,0,0,1,.07-.14s.05-.1.07-.16l.08-.12.09-.16.09-.12.11-.14.16-.18.06-.06.05,0,.19-.17.13-.1.13-.1.16-.09.12-.08.16-.07.14-.07.15,0,.16-.06.15,0,.17,0,.16,0,.16,0,.29,0h.08l.29,0,.16,0,.16,0,.17,0,.15,0,.16.06.15,0,.14.07.16.07L467,64l.16.09.13.1.13.1.19.17.05,0L485,81.86s0,0,0,0,.13.13.18.2a1.13,1.13,0,0,1,.1.13,1.47,1.47,0,0,0,.1.13l.09.16.08.12c0,.06.05.11.07.16s.05.09.07.14a.75.75,0,0,1,.05.16l.06.15a1.24,1.24,0,0,0,0,.16s0,.1,0,.16l0,.18a.68.68,0,0,0,0,.14c0,.11,0,.22,0,.33v31.34h28V84.22a1.83,1.83,0,0,1,0-.33.68.68,0,0,1,0-.14,1.1,1.1,0,0,1,0-.18c0-.06,0-.11,0-.16a1.24,1.24,0,0,0,0-.16l.06-.15c0-.06,0-.11,0-.16s0-.09.07-.14,0-.1.07-.16l.08-.12.09-.16a1.47,1.47,0,0,0,.1-.13,1.13,1.13,0,0,1,.1-.13c0-.07.12-.13.18-.2l0,0,17.34-17.34,0,0,.19-.17.13-.1.13-.1L533,64l.12-.08.16-.07.14-.07.15,0,.16-.06.15,0,.17,0,.16,0,.16,0,.29,0h.08l.29,0,.16,0,.16,0,.17,0,.15,0,.16.06.15,0,.14.07.16.07.12.08.16.09.13.1.13.1a1.54,1.54,0,0,1,.19.17l0,0,.06.06.16.18.11.14.09.12.09.16.08.12.07.16.07.14a1,1,0,0,1,.05.16l.06.15s0,.11,0,.16,0,.1,0,.16l0,.18a.68.68,0,0,0,0,.14c0,.11,0,.22,0,.33V84.22a4.38,4.38,0,0,1,0,.52l0,.15a2.15,2.15,0,0,1-.15.51,1.46,1.46,0,0,1-.07.19,3.85,3.85,0,0,1-.36.62,2.91,2.91,0,0,1-.33.37,2.43,2.43,0,0,1-.38.33,3.18,3.18,0,0,1-1.31.58l-.15,0a4.38,4.38,0,0,1-.52,0h-14V118.9c0,.11,0,.22,0,.33a.68.68,0,0,0,0,.14l0,.18c0,.06,0,.11,0,.16s0,.11,0,.16l-.06.16a.88.88,0,0,1-.05.15s0,.09-.07.14l-.07.16-.08.12-.09.16-.1.13a1.13,1.13,0,0,1-.1.13,1.71,1.71,0,0,1-.18.2l0,0-16.36,16.37v3.94h5.33l.33,0,.13,0,.19,0,.16,0,.16,0,.15.06.16,0,.14.07.16.07.12.08.16.09.13.1.13.1a2.09,2.09,0,0,1,.22.2l0,0,6.31,6.31,14-14V132a5.53,5.53,0,1,1,7.74-7.74H609.4c.45-3.5.72-7.06.83-10.66Z"></path> <path class="cls-1" d="M487.06,167.58h25.88a5.32,5.32,0,0,1,1.06-1.06V155l-6.71-6.72H492.71L486,155v11.55A5.32,5.32,0,0,1,487.06,167.58Z"></path> <path class="cls-1" d="M434,184v14.58a110.39,110.39,0,0,0,10.66,7V172.31l-6.71-6.72H404.6a110.39,110.39,0,0,0,7,10.66h14.59A5.53,5.53,0,1,1,434,184Z"></path> <path class="cls-1" d="M538,132v4.27c0,.11,0,.22,0,.33l0,.15a.88.88,0,0,1,0,.17c0,.06,0,.11,0,.17a.83.83,0,0,0,0,.15l-.06.16s0,.1-.05.15l-.07.15-.07.15-.08.13-.09.15a1.34,1.34,0,0,1-.11.14l-.08.12a2.61,2.61,0,0,1-.23.24L520.68,155v11.55a5.52,5.52,0,0,1,0,8.8v43.26q5.43-1,10.66-2.58V166.65a5.53,5.53,0,0,1,3.34-9.93,4.65,4.65,0,0,1,.75.06l14.23-14.23.24-.22.12-.09.15-.11.14-.08.14-.09.14-.07.15-.07.15,0,.16-.06.15,0,.17-.05.17,0,.15,0,.33,0h53.75q1.54-5.22,2.58-10.66H539.08A5.32,5.32,0,0,1,538,132Z"></path> <polygon class="cls-1" points="490.73 122.24 500 131.51 509.27 122.24 490.73 122.24"></polygon> <path class="cls-1" d="M540.16,161.5a6.3,6.3,0,0,1,.05.75,5.49,5.49,0,0,1-2.19,4.4v47.13a108.14,108.14,0,0,0,10.66-4.57V170.92a1.83,1.83,0,0,1,0-.33.68.68,0,0,1,0-.14,1.1,1.1,0,0,1,0-.18c0-.06,0-.11,0-.16a.94.94,0,0,0,0-.16l.06-.15c0-.05,0-.11,0-.16s.05-.09.07-.14l.07-.15.08-.13.09-.16a1.47,1.47,0,0,0,.1-.13l.1-.13c0-.07.12-.13.18-.2l0,0,8.67-8.67.24-.22.12-.09.15-.11.14-.08.14-.09a.91.91,0,0,0,.14-.07l.15-.07.15,0,.16-.06.15,0L560,159l.17,0,.15,0,.33,0H599a107.13,107.13,0,0,0,4.57-10.66H553.4Z"></path> <path class="cls-1" d="M562.07,165.59l-6.71,6.72v33.32a110.39,110.39,0,0,0,10.66-7V184a5.53,5.53,0,1,1,7.74-7.74h14.59a110.39,110.39,0,0,0,7-10.66Z"></path> <path class="cls-1" d="M503.34,192.66v17.43h0v10.37a106.9,106.9,0,0,0,10.66-.83V175.32a5.32,5.32,0,0,1-1.06-1.06H487.06a5.32,5.32,0,0,1-1.06,1.06v44.31q5.26.68,10.66.83V210.09h0V192.67a5.54,5.54,0,1,1,6.68,0Z"></path> <path class="cls-1" d="M573.76,182.93A5.32,5.32,0,0,1,572.7,184v9.17a112.24,112.24,0,0,0,10.23-10.23Z"></path> <path class="cls-1" d="M572.7,36.28a5.65,5.65,0,0,1,1.06,1.07h9a109.68,109.68,0,0,0-10.07-10Z"></path> <path class="cls-1" d="M548.68,45.14V11.25A110.59,110.59,0,0,0,538,6.68V46.2h9.6A5.32,5.32,0,0,1,548.68,45.14Z"></path> <path class="cls-1" d="M426.24,37.35a5.65,5.65,0,0,1,1.06-1.07v-9a108.33,108.33,0,0,0-10.06,10Z"></path> <path class="cls-1" d="M427.3,184a5.32,5.32,0,0,1-1.06-1.06h-9.16a110.87,110.87,0,0,0,10.22,10.23Z"></path> <path class="cls-1" d="M555.36,80V92.89c0,.11,0,.22,0,.33l0,.15a.88.88,0,0,1,0,.17c0,.06,0,.11,0,.17a.83.83,0,0,0,0,.15l-.06.16s0,.1,0,.15-.05.1-.07.14l-.07.16-.08.13-.09.15-.1.14-.1.12a2.2,2.2,0,0,1-.2.23h0l-11.63,11.64h67.48c-.11-3.6-.38-7.15-.83-10.66H573.76a5.53,5.53,0,1,1,0-6.68h34.59q-1-5.43-2.58-10.66H556.42A5.32,5.32,0,0,1,555.36,80Z"></path> <polygon class="cls-1" points="525.41 80.88 531.34 80.88 531.34 74.95 525.41 80.88"></polygon> <path class="cls-1" d="M444.64,53.94a5.52,5.52,0,0,1,0-8.8V14.83a112.29,112.29,0,0,0-10.66,7v14.4A5.53,5.53,0,1,1,426.24,44H411.79a111.23,111.23,0,0,0-7.19,10.84h40Z"></path> <path class="cls-1" d="M566,36.28V21.88a112.29,112.29,0,0,0-10.66-7V45.14a5.52,5.52,0,0,1,0,8.8v.93h40A111.23,111.23,0,0,0,588.21,44H573.76A5.53,5.53,0,1,1,566,36.28Z"></path> <polygon class="cls-1" points="474.59 80.88 468.66 74.95 468.66 80.88 474.59 80.88"></polygon> <path class="cls-1" d="M496.66,33.39V0c-3.6.11-7.15.38-10.66.83V45.14a5.51,5.51,0,0,1,2.19,4.4,6,6,0,0,1-.05.75L500,62.15l11.86-11.86a6,6,0,0,1-.05-.75,5.51,5.51,0,0,1,2.19-4.4V.83C510.5.38,506.94.11,503.34,0V33.39a5.53,5.53,0,1,1-6.68,0Z"></path> <path class="cls-1" d="M452.38,46.2H462V6.68a110.59,110.59,0,0,0-10.66,4.57V45.14A5.32,5.32,0,0,1,452.38,46.2Z"></path> </g> </g> </svg> 